<svg xmlns="http://www.w3.org/2000/svg" viewBox="0 0 24 24">    <path d="M 11.294922 4 C 11.122922 4 10.947687 4.0630781 10.804688 4.2050781 L 6 9.0117188 L 4 9.0117188 C 2.895 9.0117188 2 9.9067187 2 11.011719 L 2 13.011719 C 2 14.116719 2.895 15.011719 4 15.011719 L 6 15.011719 L 10.804688 19.816406 C 10.947688 19.959406 11.122922 20.021484 11.294922 20.021484 C 11.654922 20.021484 12 19.742313 12 19.320312 L 12 4.7011719 C 12 4.2791719 11.654922 4 11.294922 4 z M 21 5 A 1 1 0 0 0 20 6 A 1 1 0 0 0 21 7 A 1 1 0 0 0 22 6 A 1 1 0 0 0 21 5 z M 18 7 A 1 1 0 0 0 17 8 A 1 1 0 0 0 18 9 A 1 1 0 0 0 19 8 A 1 1 0 0 0 18 7 z M 15 9 A 1 1 0 0 0 14 10 A 1 1 0 0 0 15 11 A 1 1 0 0 0 16 10 A 1 1 0 0 0 15 9 z M 18 11 A 1 1 0 0 0 17 12 A 1 1 0 0 0 18 13 A 1 1 0 0 0 19 12 A 1 1 0 0 0 18 11 z M 21 11 A 1 1 0 0 0 20 12 A 1 1 0 0 0 21 13 A 1 1 0 0 0 22 12 A 1 1 0 0 0 21 11 z M 15 13 A 1 1 0 0 0 14 14 A 1 1 0 0 0 15 15 A 1 1 0 0 0 16 14 A 1 1 0 0 0 15 13 z M 18 15 A 1 1 0 0 0 17 16 A 1 1 0 0 0 18 17 A 1 1 0 0 0 19 16 A 1 1 0 0 0 18 15 z M 21 17 A 1 1 0 0 0 20 18 A 1 1 0 0 0 21 19 A 1 1 0 0 0 22 18 A 1 1 0 0 0 21 17 z"></path></svg>